<?xml version="1.0" encoding="utf-8"?>
<!-- Generator: Adobe Illustrator 18.0.0, SVG Export Plug-In . SVG Version: 6.00 Build 0)  -->
<!DOCTYPE svg PUBLIC "-//W3C//DTD SVG 1.1//EN" "http://www.w3.org/Graphics/SVG/1.1/DTD/svg11.dtd" [
	<!ENTITY st0 "fill:#610000;">
]>
<svg version="1.1" id="layout" xmlns="http://www.w3.org/2000/svg" xmlns:xlink="http://www.w3.org/1999/xlink" x="0px" y="0px"
	 viewBox="0 0 92.2 89.4" style="enable-background:new 0 0 92.2 89.4;" xml:space="preserve">
<g>
	<path style="&st0;" d="M77.4,34.3c-0.7,7.5-4,14.3-9.1,19.4c-5.7,5.7-13.5,9.2-22.2,9.2c-8.7,0-16.5-3.5-22.2-9.2
		c-5.1-5.1-8.4-11.8-9.1-19.4c1.2,0,5-0.7,6.8,4.9c1.3,4,3.5,7.6,6.3,10.5c4.7,4.7,11.1,7.5,18.2,7.5c2.5,0,5-0.4,7.3-1.1V44.4H38.8
		c-3.6,0-5.7-2.7-5.7-5.7V9.2c-1.9,1.1-3.6,2.5-5.2,4c-2.9,2.9-5.1,6.5-6.4,10.5c-1.7,5.5-5.6,4.8-6.7,4.8c0.7-7.5,4-14.3,9.1-19.4
		C29.6,3.5,37.4,0,46.1,0c8.7,0,16.5,3.5,22.2,9.2c5.1,5.1,8.4,11.8,9.1,19.4c-1.6,0-5,0.7-6.8-4.9c-1.3-4-3.5-7.6-6.4-10.5
		c-4.7-4.7-11.1-7.5-18.2-7.5c-2.5,0-5,0.4-7.3,1.1v11.6h14.6c4.8,0,5.7,1.3,5.7,5.7v29.5c1.9-1.1,3.6-2.5,5.2-4
		c2.9-2.9,5.1-6.5,6.4-10.5C72.4,33.6,76,34.3,77.4,34.3L77.4,34.3z M38.8,24.1v14.6h14.6V24.1H38.8L38.8,24.1z"/>
	<path style="&st0;" d="M12.1,89.4V74.6h5.4v14.8H12.1L12.1,89.4z M25,67.4c0.9,2.1,2.1,7.7,4.5,7.7c-0.6,2.1-1.8,2.6-3.5,2.6
		c-2.4,0-2.1,0-3.1-2.2l-2.2-5.2H9.8l1.1-3H25L25,67.4z M0,75.1c2.7,0,3.6-5.3,4.6-7.6h5.4c-1.3,3.4-2.7,6.8-4,10.2
		C2.2,77.7,0.7,77.8,0,75.1L0,75.1z M50.9,67.1c-1.2,1.9-2.3,3.9-3.5,5.8c0.8,0,1.7,0,2.5,0c2.2,3.5,6.7,13.8,10.7,13.8
		c-0.9,1.9-0.6,2.6-2.7,2.6c-2.9,0-3.2,0.5-4.7-2c-2.5-4-4.9-8-7.4-12c-2.8,4.7-5.5,9.3-8.3,14c-3.8,0-4.6,0.9-6.2-2.6
		c4.2,0,11.2-15.6,13.6-19.6H50.9L50.9,67.1z M62.5,86c4.1,0,7.1-0.3,9.1-0.8c1.9-0.5,2.9-1.3,2.9-2.5v-1.5h5.8v1.5
		c0,1.1,1,1.9,2.9,2.5c1.9,0.5,4.9,0.8,9.1,0.8v3.1c-1.6,0-3.1,0-4.5-0.1c-1.5-0.1-2.8-0.2-4.1-0.4c-1.3-0.2-2.4-0.4-3.5-0.7
		c-1.1-0.3-2-0.6-2.8-1c-0.8,0.4-1.7,0.7-2.8,1c-1.1,0.3-2.2,0.5-3.5,0.7c-1.3,0.2-2.6,0.3-4.1,0.4c-1.4,0.1-3,0.1-4.5,0.1V86
		L62.5,86z M64.1,78.1h26.6v6.6h-5.9v-4.2H70v4.2h-5.9V78.1L64.1,78.1z M84.1,69.5h8.1V72h-5.9c2.4,2.8,2.3,3.2,5.9,3.2
		c-1.5,2.2-4.4,2.4-8.3,2.4L79.4,72H72v-2.5h5.4l-1.9-2.3C79.7,67.2,81.4,66.3,84.1,69.5L84.1,69.5z M65.1,77.6c0-1.6,0-3.2,0-4.8
		c-0.6,0-1.2,0-1.7,0c-0.2-0.8-0.5-1.6-0.7-2.4c2.5,0,2.9-1.3,4.6-3.1h6.4l-3.4,4.3H71v6.1H65.1L65.1,77.6z M90.9,67.1L90.2,69h-4.3
		v-1.9H90.9L90.9,67.1z"/>
</g>
</svg>
