<?xml version="1.0" encoding="utf-8"?>
<!-- Generator: Adobe Illustrator 16.0.0, SVG Export Plug-In . SVG Version: 6.00 Build 0)  -->
<!DOCTYPE svg PUBLIC "-//W3C//DTD SVG 1.1//EN" "http://www.w3.org/Graphics/SVG/1.1/DTD/svg11.dtd">
<svg version="1.1" id="图层_1" xmlns="http://www.w3.org/2000/svg" xmlns:xlink="http://www.w3.org/1999/xlink" x="0px" y="0px"
	 width="77.909px" height="75.528px" viewBox="0 0 77.909 75.528" enable-background="new 0 0 77.909 75.528" xml:space="preserve">
<g>
	<path fill="#D4B365" d="M23.603,62.209v1.922l-3.512,8.768h4.978v2.35H0v-2.35h15.087l1.213-2.932H1.415v-2.273l3.842-8.162H0.632
		v-2.377h23.755v2.377H10.083L8.87,62.209H23.603L23.603,62.209z M18.548,64.586H7.809L6.47,67.618h10.815L18.548,64.586
		L18.548,64.586z M36.719,71.081h-4.625v3.639h-4.751v-5.736h9.376v-1.768h4.118V57.155h10.412c0,3.178,0,6.354,0,9.529
		c-2.9,0-5.056,0.412-5.66-1.846c0.505,0,1.01,0,1.516,0v-1.77h-1.491v-2.174h1.491v-1.742h-1.921v9.021h-3.715v0.809h9.376
		c0,1.912,0,3.824,0,5.736c-3.15,0-5.396,0.348-6.318-1.945c0.521,0,1.045,0,1.567,0v-1.693h-4.625v4.447h-4.75V71.081
		L36.719,71.081z M39.675,57.459v2.123h-4.624l-0.228,0.859h4.801v2.121h-5.332l-0.202,0.885h5.762v2.123h-6.293
		c-0.219,0.885-0.438,1.768-0.657,2.654c-3.344,0.041-4.836,0.271-5.356-1.67c0.37,0,0.741,0,1.112,0l0.252-0.984h-2.274v-2.123
		h2.856l0.252-0.885h-2.881v-2.121h3.462l0.228-0.859h-3.74v-2.123h4.322l0.201-0.732h4.423l-0.177,0.732H39.675L39.675,57.459z
		 M52.79,72.647c3.471-0.016,6.022-0.244,7.656-0.682c1.635-0.438,2.452-1.129,2.452-2.072v-1.289h4.928v1.289
		c0,0.943,0.813,1.635,2.438,2.072s4.174,0.666,7.645,0.682v2.602c-1.314,0-2.586-0.029-3.816-0.088
		c-1.229-0.059-2.379-0.158-3.449-0.303c-1.069-0.143-2.056-0.332-2.956-0.568c-0.902-0.236-1.681-0.521-2.338-0.859
		c-0.657,0.338-1.433,0.623-2.324,0.859c-0.894,0.236-1.88,0.426-2.957,0.568c-1.079,0.145-2.228,0.244-3.45,0.303
		c-1.221,0.059-2.497,0.088-3.828,0.088V72.647L52.79,72.647z M54.129,66h22.466v5.586h-5.004v-3.539H59.133v3.539h-5.004V66
		L54.129,66z M71.061,58.721h6.822v2.125H72.88c0.759,0.893,1.517,1.785,2.274,2.678c0.909,0,1.819,0,2.729,0
		c-0.878,1.877-3.682,1.996-7.024,1.996l-3.766-4.674h-6.241v-2.125c1.508,0,3.015,0,4.523,0c-0.531-0.654-1.063-1.313-1.593-1.969
		C67.336,56.752,68.759,56.004,71.061,58.721L71.061,58.721z M54.963,65.52c0-1.363,0-2.729,0-4.094c-1.857,0-1.54-0.244-2.071-2.02
		c2.141,0,2.455-1.061,3.866-2.654h5.382l-2.83,3.588h0.657v5.18H54.963L54.963,65.52z M76.797,56.676l-0.631,1.566h-3.614v-1.566
		H76.797L76.797,56.676z"/>
	<path fill="#D4B365" d="M65.385,28.945c-0.573,6.365-3.396,12.086-7.666,16.358c-4.803,4.801-11.438,7.771-18.764,7.771
		c-7.327,0-13.962-2.971-18.765-7.771c-4.271-4.271-7.092-9.993-7.665-16.358c1.043,0,4.236-0.551,5.708,4.121
		c1.061,3.373,2.923,6.389,5.362,8.829c3.931,3.932,9.362,6.365,15.359,6.365c2.146,0,4.222-0.313,6.181-0.895v-9.828h-12.34
		c-3.025,0-4.841-2.309-4.841-4.811V7.803c-1.594,0.939-3.059,2.074-4.359,3.375c-2.452,2.453-4.32,5.488-5.379,8.881
		c-1.449,4.645-4.749,4.07-5.691,4.07c0.573-6.365,3.395-12.086,7.665-16.355C24.993,2.971,31.628,0,38.955,0
		c7.326,0,13.961,2.969,18.764,7.773c4.27,4.27,7.093,9.99,7.666,16.355c-1.374,0-4.238,0.555-5.705-4.113
		c-1.062-3.375-2.925-6.396-5.366-8.838c-3.931-3.93-9.361-6.361-15.358-6.361c-2.148,0-4.224,0.313-6.183,0.893v9.83h12.343
		c4.048,0,4.838,1.088,4.838,4.828V45.27c1.596-0.938,3.06-2.074,4.36-3.375c2.439-2.439,4.303-5.458,5.363-8.831
		C61.147,28.393,64.189,28.945,65.385,28.945L65.385,28.945z M32.772,20.355v12.365h12.363V20.355H32.772L32.772,20.355z"/>
</g>
</svg>
